<?xml version="1.0" standalone="no"?>
<!DOCTYPE svg PUBLIC "-//W3C//DTD SVG 20010904//EN"
 "http://www.w3.org/TR/2001/REC-SVG-20010904/DTD/svg10.dtd">
<svg version="1.0" xmlns="http://www.w3.org/2000/svg"
 width="700.000000pt" height="700.000000pt" viewBox="0 0 700.000000 700.000000"
 preserveAspectRatio="xMidYMid meet">
<metadata>
Created by potrace 1.11, written by Peter Selinger 2001-2013
</metadata>
<g transform="translate(0.000000,700.000000) scale(0.100000,-0.100000)"
fill="#000000" stroke="none">
<path d="M3280 6994 c-19 -2 -84 -9 -145 -14 -1500 -142 -2766 -1290 -3064
-2779 -52 -257 -65 -399 -65 -691 -1 -335 23 -543 94 -837 193 -798 689 -1533
1356 -2009 519 -369 1095 -584 1729 -644 143 -13 489 -13 635 1 1459 135 2690
1180 3061 2599 118 451 142 972 68 1440 -119 756 -501 1471 -1065 1997 -151
142 -273 237 -454 358 -469 312 -955 491 -1525 561 -113 14 -549 27 -625 18z
m639 -565 c80 -12 198 -34 261 -49 102 -25 118 -32 147 -64 26 -28 33 -44 33
-76 0 -77 -48 -131 -119 -133 -20 -1 -88 11 -151 26 -63 14 -183 35 -267 46
-83 11 -161 25 -173 31 -30 16 -60 69 -60 108 0 75 60 132 139 132 24 0 109
-10 190 -21z m-645 -10 c56 -44 70 -110 36 -166 -29 -49 -57 -61 -170 -77
-125 -18 -219 -37 -360 -73 -104 -26 -105 -26 -144 -8 -54 26 -78 68 -73 128
8 93 75 126 370 181 175 34 172 33 248 35 53 1 71 -3 93 -20z m1627 -314 c127
-70 316 -191 357 -228 70 -65 35 -195 -60 -216 -50 -11 -77 0 -201 82 -61 41
-169 105 -239 142 -75 40 -134 78 -144 93 -29 43 -29 102 -2 142 56 83 117 79
289 -15z m-2641 30 c67 -35 92 -101 62 -167 -17 -38 -31 -50 -118 -98 -92 -52
-235 -144 -349 -226 -45 -32 -55 -36 -98 -31 -65 6 -107 46 -114 109 -7 64 15
99 105 165 163 121 410 263 458 263 14 0 38 -7 54 -15z m3432 -654 c95 -100
259 -317 295 -389 23 -47 25 -57 15 -90 -26 -85 -120 -126 -189 -83 -17 11
-54 53 -82 95 -47 69 -148 198 -256 324 -40 48 -45 59 -45 102 0 38 6 55 27
80 34 41 58 51 113 46 41 -4 51 -10 122 -85z m-4217 -1 c31 -29 48 -81 40
-119 -3 -16 -49 -83 -102 -148 -52 -65 -128 -168 -169 -230 -41 -62 -85 -119
-97 -128 -12 -8 -41 -15 -65 -15 -79 0 -132 51 -132 128 0 30 12 58 53 123 97
154 265 369 315 402 38 26 123 19 157 -13z m1803 -139 c30 -23 52 -53 87 -123
25 -51 48 -94 49 -96 2 -2 73 -7 157 -13 411 -25 728 -92 941 -199 239 -119
413 -307 463 -496 34 -129 4 -389 -60 -519 -80 -164 -318 -363 -615 -514 -364
-186 -754 -303 -1425 -430 -183 -34 -192 -37 -199 -59 -25 -85 -59 -221 -85
-337 -17 -77 -51 -234 -77 -349 -58 -268 -72 -310 -128 -400 -51 -82 -99 -129
-160 -157 -103 -47 -176 -2 -212 130 -23 80 -14 125 55 287 42 99 73 206 180
635 71 284 137 543 146 575 21 74 147 459 258 789 47 138 95 292 108 343 24
92 24 94 5 108 -11 8 -36 14 -55 14 -113 0 -170 95 -150 254 18 142 72 199
229 241 52 13 102 33 111 42 9 10 33 58 53 108 63 152 110 194 222 195 52 0
67 -4 102 -29z m2899 -661 c18 -10 39 -30 47 -43 35 -53 124 -329 161 -499 17
-76 17 -78 -4 -122 -42 -86 -148 -101 -213 -29 -9 10 -35 88 -56 173 -22 86
-59 205 -81 266 -23 62 -41 129 -41 151 0 93 108 152 187 103z m-5267 -68 c38
-21 70 -72 70 -114 0 -15 -11 -56 -24 -91 -32 -86 -81 -263 -102 -367 -9 -47
-23 -97 -32 -111 -49 -86 -190 -75 -229 18 -13 34 -13 45 2 123 35 181 116
451 151 506 18 27 70 53 104 54 14 0 41 -8 60 -18z m5480 -949 c59 -34 64 -58
57 -279 -7 -217 -35 -428 -61 -469 -52 -79 -180 -75 -222 7 -18 35 -17 57 10
273 9 66 16 176 16 245 1 69 6 141 13 160 24 69 122 102 187 63z m-5663 -70
c58 -27 69 -56 76 -206 4 -72 17 -203 29 -290 21 -148 21 -159 5 -192 -20 -41
-70 -75 -112 -75 -44 0 -97 32 -116 71 -23 45 -57 290 -65 464 -7 160 3 193
67 227 42 22 71 23 116 1z m5473 -998 c37 -19 60 -62 60 -112 0 -79 -204 -496
-274 -562 -49 -46 -146 -36 -185 18 -38 53 -36 90 8 172 74 136 152 290 172
342 37 95 52 119 83 138 37 23 96 24 136 4z m-5261 -26 c23 -14 40 -36 55 -72
37 -91 143 -302 190 -380 49 -81 59 -137 32 -185 -30 -56 -115 -79 -175 -48
-32 17 -56 51 -138 201 -82 147 -163 334 -163 374 0 101 112 163 199 110z
m4743 -878 c65 -73 52 -126 -60 -243 -107 -112 -301 -279 -357 -309 -54 -29
-106 -20 -152 26 -28 28 -33 40 -33 80 0 25 5 55 10 65 6 11 50 52 98 92 48
40 143 127 212 194 69 67 132 124 140 127 8 4 37 5 64 3 41 -3 55 -9 78 -35z
m-4104 -84 c59 -56 160 -146 224 -200 97 -80 119 -104 129 -137 24 -81 -38
-160 -127 -160 -37 0 -54 8 -121 59 -158 120 -346 301 -381 368 -25 47 -6 112
44 152 19 15 41 21 76 21 49 0 50 -1 156 -103z m3259 -523 c54 -34 71 -111 39
-172 -25 -48 -211 -137 -450 -216 -141 -47 -187 -47 -231 -3 -38 38 -50 72
-41 120 10 56 50 82 193 131 72 25 178 66 235 92 178 80 198 84 255 48z
m-2437 -45 c63 -28 176 -71 250 -95 74 -25 146 -50 159 -57 25 -12 60 -77 61
-110 0 -60 -68 -127 -129 -127 -65 0 -453 142 -549 200 -86 53 -94 157 -16
219 44 34 95 28 224 -30z m1445 -243 c52 -34 69 -117 35 -173 -37 -61 -60 -66
-318 -71 -296 -5 -352 0 -397 39 -37 33 -50 73 -41 124 8 39 56 92 89 97 12 2
153 3 314 2 260 0 294 -2 318 -18z"/>
<path d="M3467 4674 c-173 -19 -190 -27 -226 -107 -31 -69 -179 -473 -261
-713 -83 -241 -151 -476 -144 -497 7 -23 29 -21 255 23 512 101 1073 309 1339
498 96 68 189 160 217 216 22 44 25 59 21 130 -6 111 -37 174 -128 260 -156
147 -378 207 -756 205 -104 -1 -247 -8 -317 -15z"/>
</g>
</svg>
