<?xml version="1.0" encoding="UTF-8" standalone="no"?>
<!DOCTYPE svg PUBLIC "-//W3C//DTD SVG 1.1//EN" "http://www.w3.org/Graphics/SVG/1.1/DTD/svg11.dtd">
<svg width="100%" height="100%" viewBox="0 0 1600 586" version="1.1" xmlns="http://www.w3.org/2000/svg" xmlns:xlink="http://www.w3.org/1999/xlink" xml:space="preserve" xmlns:serif="http://www.serif.com/" style="fill-rule:evenodd;clip-rule:evenodd;stroke-linecap:round;stroke-linejoin:round;stroke-miterlimit:1.5;">
    <g transform="matrix(1,0,0,1,-1.68421,-97.6842)">
        <circle cx="594.526" cy="295.246" r="25.263" style="fill:rgb(235,235,235);"/>
    </g>
    <path d="M592.842,0L592.842,586" style="fill:none;stroke:black;stroke-width:1px;"/>
    <path d="M0,197.561L1600,197.561" style="fill:none;stroke:black;stroke-width:1px;"/>
    <path d="M187.509,586L108.912,0" style="fill:none;stroke:black;stroke-width:3px;"/>
    <path d="M812.912,586C740.326,600.744 651.261,247.043 782.596,141.982C810.655,119.537 838.392,104.158 882.526,101.561L835.368,0" style="fill:none;stroke:black;stroke-width:3px;"/>
    <g transform="matrix(0.871823,0,0,0.871823,63.5398,37.5846)">
        <path d="M193.948,629.558L103.2,-43.11" style="fill:none;stroke:rgb(162,0,0);stroke-width:3.44px;stroke-dasharray:13.76,13.76,0,6.88;"/>
    </g>
    <g transform="matrix(0.871823,0,0,0.871823,63.5398,37.5846)">
        <path d="M802.609,629.558C773.082,635.556 730.489,533.685 716.641,458.763C696.077,347.507 701.15,191.279 773.581,122.664C806.792,91.204 848.695,55.218 892.829,52.622L843.507,-43.11" style="fill:none;stroke:rgb(162,0,0);stroke-width:3.44px;stroke-dasharray:13.76,13.76,0,6.88;"/>
    </g>
    <g transform="matrix(1.1103,0,0,1.07275,-54.6802,-21.3333)">
        <path d="M187.509,586L108.912,0" style="fill:none;stroke:rgb(0,2,133);stroke-width:2.75px;stroke-dasharray:8.24,8.24,0,0;"/>
    </g>
    <g transform="matrix(1.1103,0,0,1.07275,-54.6802,-21.3333)">
        <path d="M844.098,586C771.512,600.744 659.351,271.116 790.687,166.056C818.745,143.61 844.459,140.791 888.594,138.194L835.368,0" style="fill:none;stroke:rgb(0,2,133);stroke-width:2.75px;stroke-dasharray:8.24,8.24,0,0;"/>
    </g>
</svg>
